<svg width="24" height="24" version="1.1" xmlns="http://www.w3.org/2000/svg">
 <circle cx="12" cy="12.5" r="10" style="opacity:.2"/>
 <circle cx="12" cy="12" r="10" style="fill:#e4e4e4"/>
 <path d="M 12,2 A 10,10 0 0 0 2,12 10,10 0 0 0 2.015625,12.25 10,10 0 0 1 12,2.5 10,10 0 0 1 21.984375,12.25 10,10 0 0 0 22,12 10,10 0 0 0 12,2 Z" style="fill:#ffffff;opacity:.2"/>
 <circle cx="12" cy="11.5" r=".5" style="fill:#333333"/>
 <path d="m12 8.5c-0.626794 0-1 0.5-1 0.5l-5.4003908 5.300781s-0.683964 0.57288-0.2988282 1.09961c0.3851361 0.52673 1.0996094 0.099609 1.0996094 0.099609l4.0996096-4a1.5 1.5 0 0 1 1.5-1.5 1.5 1.5 0 0 1 1.5 1.5l4.099609 4s0.714474 0.427122 1.09961-0.09961c0.385136-0.52673-0.298828-1.09961-0.298828-1.09961l-5.400391-5.30078s-0.373206-0.5-1-0.5z" style="fill:#333333"/>
 <path d="m9.3 14 1.3 1s0.755437-1 1.4-1 1.4 1 1.4 1l1.3-1-1.5-1.5c-0.284366 0.317931-0.773451 0.499759-1.2 0.5-0.426549-2.41e-4 -0.915634-0.182069-1.2-0.5z" style="fill:#333333"/>
</svg>
