<svg width="16" height="16" version="1.1" xmlns="http://www.w3.org/2000/svg">
 <circle cx="8" cy="8" r="8" style="fill:#e4e4e4"/>
 <circle cx="8" cy="7.5" r=".5" style="fill:#333333"/>
 <path d="m8 4.8007812c-0.2962861 0-0.5 0.1992188-0.5 0.1992188l-4.9003906 5s-0.2752266 0.423993 0 0.699219 0.5996093 0 0.5996094 0l3.3007812-3.199219c0-0.8284271 0.6715729-1.5 1.5-1.5s1.5 0.6715729 1.5 1.5l3.298828 3.199219s0.326336 0.275226 0.601563 0c0.275226-0.275226 0-0.699219 0-0.699219l-4.900391-5s-0.2037139-0.1992188-0.5-0.1992188z" style="fill:#333333"/>
 <path d="M 7.0449219,8.65625 6.4,9.4 7,10 C 7,10 7.5682395,9.6 8,9.6 8.4317605,9.6 9,10 9,10 L 9.5996094,9.4 8.9550781,8.65625 C 8.68634,8.8783422 8.3486332,8.9998891 8,9 7.6513668,8.9998891 7.31366,8.8783422 7.0449219,8.65625 Z" style="fill:#333333"/>
</svg>
